<svg xmlns="http://www.w3.org/2000/svg" viewBox="0 0 512 512" preserveAspectRatio="xMidYMid meet" role="img" aria-label="Runner icon">
  <defs>
    <linearGradient id="g1" x1="0" x2="1" y1="0" y2="1">
      <stop offset="0%" stop-color="#7C3AED"/>
      <stop offset="50%" stop-color="#2563EB"/>
      <stop offset="100%" stop-color="#06B6D4"/>
    </linearGradient>
    <linearGradient id="g2" x1="0" x2="1" y1="1" y2="0">
      <stop offset="0%" stop-color="#22D3EE"/>
      <stop offset="100%" stop-color="#A78BFA"/>
    </linearGradient>
  </defs>

  <!-- Dark rounded tile background -->
  <rect x="32" y="32" width="448" height="448" rx="112" fill="#0B0B0F"/>
  <rect x="32" y="32" width="448" height="448" rx="112" fill="url(#g1)" opacity="0.08"/>

  <!-- Stylized R / runner bolt (optically centered) -->
  <g transform="translate(-20,-12)">
    <path d="M188 140h110c60 0 96 32 96 84 0 44-26 74-69 83l63 65c8 8 7 20-2 28-9 8-23 7-31-2l-85-92h-50v86c0 12-10 22-22 22s-22-10-22-22V162c0-12 10-22 22-22Zm110 122c34 0 52-14 52-38s-18-38-52-38h-88v76h88Z" fill="url(#g2)"/>
  </g>

  <!-- Subtle inner highlight -->
  <rect x="40" y="40" width="432" height="432" rx="104" fill="none" stroke="url(#g2)" stroke-opacity="0.22" stroke-width="2"/>
</svg>
